<mxfile host="Electron" modified="2024-03-07T12:32:05.861Z" agent="Mozilla/5.0 (Windows NT 10.0; Win64; x64) AppleWebKit/537.36 (KHTML, like Gecko) draw.io/23.1.5 Chrome/120.0.6099.109 Electron/28.1.0 Safari/537.36" etag="2BEZighJ71XbzbM4-rsu" version="23.1.5" type="device">
  <diagram id="O3whct_VJJggGx5-_gyD" name="Page-1">
    <mxGraphModel dx="1434" dy="844" grid="1" gridSize="10" guides="1" tooltips="1" connect="1" arrows="1" fold="1" page="1" pageScale="1" pageWidth="1920" pageHeight="1200" math="0" shadow="0">
      <root>
        <mxCell id="0" />
        <mxCell id="1" parent="0" />
        <mxCell id="KI7Xn0BbtmQMHCuYdvjg-131" value="" style="rounded=0;whiteSpace=wrap;html=1;fontSize=22;fillColor=#f5f5f5;fontColor=#333333;strokeColor=#666666;direction=east;" parent="1" vertex="1">
          <mxGeometry x="70" y="70" width="1960" height="1510" as="geometry" />
        </mxCell>
        <mxCell id="r7Afv0gRqrm4WA9c9OII-1" value="&lt;span style=&quot;color: rgba(0 , 0 , 0 , 0) ; font-family: monospace ; font-size: 0px&quot;&gt;%3CmxGraphModel%3E%3Croot%3E%3CmxCell%20id%3D%220%22%2F%3E%3CmxCell%20id%3D%221%22%20parent%3D%220%22%2F%3E%3CmxCell%20id%3D%222%22%20value%3D%22%22%20style%3D%22rounded%3D0%3BwhiteSpace%3Dwrap%3Bhtml%3D1%3BstrokeWidth%3D2%3BfillColor%3D%23dae8fc%3BstrokeColor%3D%236c8ebf%3B%22%20vertex%3D%221%22%20parent%3D%221%22%3E%3CmxGeometry%20x%3D%22-120%22%20y%3D%22190%22%20width%3D%221920%22%20height%3D%22240%22%20as%3D%22geometry%22%2F%3E%3C%2FmxCell%3E%3C%2Froot%3E%3C%2FmxGraphModel%3E&lt;/span&gt;" style="rounded=0;whiteSpace=wrap;html=1;strokeWidth=2;" parent="1" vertex="1">
          <mxGeometry x="90" y="890" width="1920" height="310" as="geometry" />
        </mxCell>
        <mxCell id="IDHT7T46eidWPeozflbB-3" value="&lt;span style=&quot;color: rgba(0 , 0 , 0 , 0) ; font-family: monospace ; font-size: 0px&quot;&gt;%3CmxGraphModel%3E%3Croot%3E%3CmxCell%20id%3D%220%22%2F%3E%3CmxCell%20id%3D%221%22%20parent%3D%220%22%2F%3E%3CmxCell%20id%3D%222%22%20value%3D%22%22%20style%3D%22rounded%3D0%3BwhiteSpace%3Dwrap%3Bhtml%3D1%3BstrokeWidth%3D2%3BfillColor%3D%23dae8fc%3BstrokeColor%3D%236c8ebf%3B%22%20vertex%3D%221%22%20parent%3D%221%22%3E%3CmxGeometry%20x%3D%22-120%22%20y%3D%22190%22%20width%3D%221920%22%20height%3D%22240%22%20as%3D%22geometry%22%2F%3E%3C%2FmxCell%3E%3C%2Froot%3E%3C%2FmxGraphModel%3E&lt;/span&gt;" style="rounded=0;whiteSpace=wrap;html=1;strokeWidth=2;" parent="1" vertex="1">
          <mxGeometry x="90" y="140" width="1920" height="250" as="geometry" />
        </mxCell>
        <mxCell id="IDHT7T46eidWPeozflbB-2" value="&lt;span style=&quot;color: rgba(0 , 0 , 0 , 0) ; font-family: monospace ; font-size: 0px&quot;&gt;%3CmxGraphModel%3E%3Croot%3E%3CmxCell%20id%3D%220%22%2F%3E%3CmxCell%20id%3D%221%22%20parent%3D%220%22%2F%3E%3CmxCell%20id%3D%222%22%20value%3D%22%22%20style%3D%22rounded%3D0%3BwhiteSpace%3Dwrap%3Bhtml%3D1%3BstrokeWidth%3D2%3BfillColor%3D%23dae8fc%3BstrokeColor%3D%236c8ebf%3B%22%20vertex%3D%221%22%20parent%3D%221%22%3E%3CmxGeometry%20x%3D%22-120%22%20y%3D%22190%22%20width%3D%221920%22%20height%3D%22240%22%20as%3D%22geometry%22%2F%3E%3C%2FmxCell%3E%3C%2Froot%3E%3C%2FmxGraphModel%3E&lt;/span&gt;" style="rounded=0;whiteSpace=wrap;html=1;strokeWidth=2;" parent="1" vertex="1">
          <mxGeometry x="90" y="390" width="1920" height="250" as="geometry" />
        </mxCell>
        <mxCell id="IDHT7T46eidWPeozflbB-1" value="&lt;span style=&quot;color: rgba(0 , 0 , 0 , 0) ; font-family: monospace ; font-size: 0px&quot;&gt;%3CmxGraphModel%3E%3Croot%3E%3CmxCell%20id%3D%220%22%2F%3E%3CmxCell%20id%3D%221%22%20parent%3D%220%22%2F%3E%3CmxCell%20id%3D%222%22%20value%3D%22%22%20style%3D%22rounded%3D0%3BwhiteSpace%3Dwrap%3Bhtml%3D1%3BstrokeWidth%3D2%3BfillColor%3D%23dae8fc%3BstrokeColor%3D%236c8ebf%3B%22%20vertex%3D%221%22%20parent%3D%221%22%3E%3CmxGeometry%20x%3D%22-120%22%20y%3D%22190%22%20width%3D%221920%22%20height%3D%22240%22%20as%3D%22geometry%22%2F%3E%3C%2FmxCell%3E%3C%2Froot%3E%3C%2FmxGraphModel%3E&lt;/span&gt;" style="rounded=0;whiteSpace=wrap;html=1;strokeWidth=2;" parent="1" vertex="1">
          <mxGeometry x="90" y="640" width="1920" height="250" as="geometry" />
        </mxCell>
        <mxCell id="KI7Xn0BbtmQMHCuYdvjg-67" value="&lt;span style=&quot;color: rgba(0 , 0 , 0 , 0) ; font-family: monospace ; font-size: 0px&quot;&gt;%3CmxGraphModel%3E%3Croot%3E%3CmxCell%20id%3D%220%22%2F%3E%3CmxCell%20id%3D%221%22%20parent%3D%220%22%2F%3E%3CmxCell%20id%3D%222%22%20value%3D%22%22%20style%3D%22rounded%3D0%3BwhiteSpace%3Dwrap%3Bhtml%3D1%3BstrokeWidth%3D2%3BfillColor%3D%23dae8fc%3BstrokeColor%3D%236c8ebf%3B%22%20vertex%3D%221%22%20parent%3D%221%22%3E%3CmxGeometry%20x%3D%22-120%22%20y%3D%22190%22%20width%3D%221920%22%20height%3D%22240%22%20as%3D%22geometry%22%2F%3E%3C%2FmxCell%3E%3C%2Froot%3E%3C%2FmxGraphModel%3E&lt;/span&gt;" style="rounded=0;whiteSpace=wrap;html=1;strokeWidth=2;" parent="1" vertex="1">
          <mxGeometry x="90" y="1200" width="1920" height="360" as="geometry" />
        </mxCell>
        <mxCell id="KI7Xn0BbtmQMHCuYdvjg-15" style="edgeStyle=orthogonalEdgeStyle;rounded=0;orthogonalLoop=1;jettySize=auto;html=1;exitX=0.5;exitY=1;exitDx=0;exitDy=0;fontStyle=1;strokeWidth=2;strokeColor=#00CC00;" parent="1" source="8eKBUWW6FmaFlCSRCfbh-4" target="KI7Xn0BbtmQMHCuYdvjg-2" edge="1">
          <mxGeometry relative="1" as="geometry" />
        </mxCell>
        <mxCell id="KI7Xn0BbtmQMHCuYdvjg-1" value="VISIT THIRD PARTY/ENROLMENT CENTRE WITHAPPLICANT AND&amp;nbsp; APPOINTMENT CONFIRMATION LETTER" style="rounded=0;whiteSpace=wrap;html=1;fontStyle=1;strokeWidth=2;" parent="1" vertex="1">
          <mxGeometry x="235" y="443.36" width="130" height="100" as="geometry" />
        </mxCell>
        <mxCell id="8eKBUWW6FmaFlCSRCfbh-8" style="edgeStyle=orthogonalEdgeStyle;rounded=0;orthogonalLoop=1;jettySize=auto;html=1;exitX=0.5;exitY=1;exitDx=0;exitDy=0;entryX=0.5;entryY=0;entryDx=0;entryDy=0;strokeColor=#00CC00;fontStyle=1;strokeWidth=2;" parent="1" source="KI7Xn0BbtmQMHCuYdvjg-2" target="8eKBUWW6FmaFlCSRCfbh-3" edge="1">
          <mxGeometry relative="1" as="geometry" />
        </mxCell>
        <mxCell id="KI7Xn0BbtmQMHCuYdvjg-2" value="VERIFY TIME, CENTRE AND RID" style="rounded=0;whiteSpace=wrap;html=1;fontStyle=1;strokeWidth=2;" parent="1" vertex="1">
          <mxGeometry x="240" y="760" width="120" height="60" as="geometry" />
        </mxCell>
        <mxCell id="KI7Xn0BbtmQMHCuYdvjg-14" value="APPLICANT" style="text;html=1;align=center;verticalAlign=middle;resizable=0;points=[];autosize=1;strokeColor=none;fillColor=none;fontStyle=1;strokeWidth=2;fontSize=22;horizontal=0;" parent="1" vertex="1">
          <mxGeometry x="90" y="185" width="50" height="140" as="geometry" />
        </mxCell>
        <mxCell id="KI7Xn0BbtmQMHCuYdvjg-19" value="PARENT/GUARDIAN/&lt;br style=&quot;font-size: 22px;&quot;&gt;INTRODUCER" style="text;html=1;align=center;verticalAlign=middle;resizable=0;points=[];autosize=1;strokeColor=none;fillColor=none;fontStyle=1;strokeWidth=2;fontSize=22;horizontal=0;" parent="1" vertex="1">
          <mxGeometry x="90" y="400" width="80" height="230" as="geometry" />
        </mxCell>
        <mxCell id="KI7Xn0BbtmQMHCuYdvjg-20" value="ADMINISTRATOR" style="text;html=1;align=center;verticalAlign=middle;resizable=0;points=[];autosize=1;strokeColor=none;fillColor=none;fontStyle=1;strokeWidth=2;fontSize=22;horizontal=0;" parent="1" vertex="1">
          <mxGeometry x="90" y="655" width="50" height="200" as="geometry" />
        </mxCell>
        <mxCell id="KI7Xn0BbtmQMHCuYdvjg-70" value="OB.1.4" style="text;html=1;align=center;verticalAlign=middle;resizable=0;points=[];autosize=1;strokeColor=none;fillColor=none;fontSize=32;fontStyle=1" parent="1" vertex="1">
          <mxGeometry x="990" y="80" width="120" height="50" as="geometry" />
        </mxCell>
        <mxCell id="KI7Xn0BbtmQMHCuYdvjg-71" value="OFFLINE BIOMETRIC COLLECTION: CONSENT" style="text;html=1;align=center;verticalAlign=middle;resizable=0;points=[];autosize=1;strokeColor=none;fillColor=none;fontSize=32;fontStyle=1" parent="1" vertex="1">
          <mxGeometry x="1270" y="89" width="740" height="50" as="geometry" />
        </mxCell>
        <mxCell id="KI7Xn0BbtmQMHCuYdvjg-72" value="A" style="ellipse;whiteSpace=wrap;html=1;aspect=fixed;fontSize=32;strokeWidth=2;fontStyle=1" parent="1" vertex="1">
          <mxGeometry x="92" y="85" width="50" height="50" as="geometry" />
        </mxCell>
        <mxCell id="r7Afv0gRqrm4WA9c9OII-109" style="edgeStyle=orthogonalEdgeStyle;rounded=0;orthogonalLoop=1;jettySize=auto;html=1;exitX=0.5;exitY=1;exitDx=0;exitDy=0;exitPerimeter=0;strokeColor=#00CC00;fontStyle=1;strokeWidth=2;" parent="1" source="8eKBUWW6FmaFlCSRCfbh-1" target="r7Afv0gRqrm4WA9c9OII-108" edge="1">
          <mxGeometry relative="1" as="geometry" />
        </mxCell>
        <mxCell id="8eKBUWW6FmaFlCSRCfbh-1" value="&lt;b&gt;START&lt;br&gt;(OFFLINE)&lt;br&gt;&lt;/b&gt;" style="strokeWidth=2;html=1;shape=mxgraph.flowchart.terminator;whiteSpace=wrap;fillColor=#d5e8d4;strokeColor=#82b366;" parent="1" vertex="1">
          <mxGeometry x="250" y="200" width="100" height="40" as="geometry" />
        </mxCell>
        <mxCell id="8eKBUWW6FmaFlCSRCfbh-12" value="RESET&lt;br&gt;COUNTER" style="edgeStyle=orthogonalEdgeStyle;rounded=0;orthogonalLoop=1;jettySize=auto;html=1;exitX=1;exitY=0.5;exitDx=0;exitDy=0;entryX=0;entryY=0.5;entryDx=0;entryDy=0;strokeColor=#00CC00;fontStyle=1;strokeWidth=2;labelBackgroundColor=none;" parent="1" source="8eKBUWW6FmaFlCSRCfbh-3" target="8eKBUWW6FmaFlCSRCfbh-60" edge="1">
          <mxGeometry x="0.0588" relative="1" as="geometry">
            <Array as="points">
              <mxPoint x="420" y="1340" />
              <mxPoint x="420" y="1340" />
            </Array>
            <mxPoint x="1" as="offset" />
          </mxGeometry>
        </mxCell>
        <mxCell id="8eKBUWW6FmaFlCSRCfbh-61" style="edgeStyle=orthogonalEdgeStyle;rounded=0;orthogonalLoop=1;jettySize=auto;html=1;exitX=0.5;exitY=1;exitDx=0;exitDy=0;strokeColor=#FF0000;fontStyle=1;strokeWidth=2;entryX=0.25;entryY=0;entryDx=0;entryDy=0;" parent="1" source="8eKBUWW6FmaFlCSRCfbh-3" target="r7Afv0gRqrm4WA9c9OII-153" edge="1">
          <mxGeometry relative="1" as="geometry">
            <Array as="points">
              <mxPoint x="300" y="1400" />
              <mxPoint x="760" y="1400" />
            </Array>
          </mxGeometry>
        </mxCell>
        <mxCell id="8eKBUWW6FmaFlCSRCfbh-3" value="IF RID &amp;amp;&lt;br&gt;APPOINTMENT DETAILS &lt;br&gt;MATCH" style="rounded=0;whiteSpace=wrap;html=1;fontStyle=1;strokeWidth=2;shape=rhombus;perimeter=rhombusPerimeter;" parent="1" vertex="1">
          <mxGeometry x="235" y="1290" width="130" height="100" as="geometry" />
        </mxCell>
        <mxCell id="8eKBUWW6FmaFlCSRCfbh-5" value="STORE CONSENT DOCUMENT IN RID ACCOUNT" style="rounded=0;whiteSpace=wrap;html=1;fontStyle=1;strokeWidth=2;shape=label;boundedLbl=1;backgroundOutline=1;size=15;" parent="1" vertex="1">
          <mxGeometry x="1320" y="1325" width="120" height="65" as="geometry" />
        </mxCell>
        <mxCell id="8eKBUWW6FmaFlCSRCfbh-21" style="edgeStyle=orthogonalEdgeStyle;rounded=0;orthogonalLoop=1;jettySize=auto;html=1;exitX=1;exitY=0.25;exitDx=0;exitDy=0;entryX=0;entryY=0.5;entryDx=0;entryDy=0;strokeColor=#00CC00;fontStyle=1;strokeWidth=2;" parent="1" source="8eKBUWW6FmaFlCSRCfbh-6" target="8eKBUWW6FmaFlCSRCfbh-15" edge="1">
          <mxGeometry relative="1" as="geometry" />
        </mxCell>
        <mxCell id="8eKBUWW6FmaFlCSRCfbh-6" value="PROVIDE DOCUMENT DETAILING BIOMETRIC COLLECTION, STORAGE AND USAGE (GDPR or similar compliance)" style="rounded=0;whiteSpace=wrap;html=1;fontStyle=1;strokeWidth=2;" parent="1" vertex="1">
          <mxGeometry x="634" y="670" width="120" height="140" as="geometry" />
        </mxCell>
        <mxCell id="8eKBUWW6FmaFlCSRCfbh-24" style="edgeStyle=orthogonalEdgeStyle;rounded=0;orthogonalLoop=1;jettySize=auto;html=1;exitX=0.5;exitY=0;exitDx=0;exitDy=0;entryX=1;entryY=0.5;entryDx=0;entryDy=0;strokeColor=#00CC00;fontStyle=1;strokeWidth=2;" parent="1" source="8eKBUWW6FmaFlCSRCfbh-15" target="8eKBUWW6FmaFlCSRCfbh-20" edge="1">
          <mxGeometry relative="1" as="geometry" />
        </mxCell>
        <mxCell id="8eKBUWW6FmaFlCSRCfbh-26" style="edgeStyle=orthogonalEdgeStyle;rounded=0;orthogonalLoop=1;jettySize=auto;html=1;exitX=0.5;exitY=1;exitDx=0;exitDy=0;entryX=0.5;entryY=0;entryDx=0;entryDy=0;strokeColor=#FF0000;fontStyle=1;strokeWidth=2;" parent="1" source="8eKBUWW6FmaFlCSRCfbh-15" target="8eKBUWW6FmaFlCSRCfbh-17" edge="1">
          <mxGeometry relative="1" as="geometry" />
        </mxCell>
        <mxCell id="8eKBUWW6FmaFlCSRCfbh-15" value="IF&lt;br&gt;APPLICANT AGE &amp;lt;5" style="rhombus;whiteSpace=wrap;html=1;rounded=0;fontStyle=1;strokeWidth=2;" parent="1" vertex="1">
          <mxGeometry x="797.5" y="665" width="95" height="80" as="geometry" />
        </mxCell>
        <mxCell id="8eKBUWW6FmaFlCSRCfbh-29" style="edgeStyle=orthogonalEdgeStyle;rounded=0;orthogonalLoop=1;jettySize=auto;html=1;exitX=0.5;exitY=0;exitDx=0;exitDy=0;entryX=1;entryY=0.5;entryDx=0;entryDy=0;strokeColor=#00CC00;fontStyle=1;strokeWidth=2;" parent="1" source="8eKBUWW6FmaFlCSRCfbh-16" target="8eKBUWW6FmaFlCSRCfbh-18" edge="1">
          <mxGeometry relative="1" as="geometry" />
        </mxCell>
        <mxCell id="8eKBUWW6FmaFlCSRCfbh-31" style="edgeStyle=orthogonalEdgeStyle;rounded=0;orthogonalLoop=1;jettySize=auto;html=1;exitX=1;exitY=0.5;exitDx=0;exitDy=0;entryX=0;entryY=0.5;entryDx=0;entryDy=0;entryPerimeter=0;strokeColor=#FF0000;fontStyle=1;strokeWidth=2;" parent="1" source="8eKBUWW6FmaFlCSRCfbh-16" target="8eKBUWW6FmaFlCSRCfbh-30" edge="1">
          <mxGeometry relative="1" as="geometry">
            <Array as="points">
              <mxPoint x="1020" y="748" />
              <mxPoint x="1020" y="850" />
              <mxPoint x="1110" y="850" />
              <mxPoint x="1110" y="1508" />
            </Array>
          </mxGeometry>
        </mxCell>
        <mxCell id="8eKBUWW6FmaFlCSRCfbh-16" value="IF&lt;br&gt;APPLICANT&lt;br&gt;AGE &amp;gt;16" style="rhombus;whiteSpace=wrap;html=1;rounded=0;fontStyle=1;strokeWidth=2;" parent="1" vertex="1">
          <mxGeometry x="905" y="708" width="100" height="80" as="geometry" />
        </mxCell>
        <mxCell id="8eKBUWW6FmaFlCSRCfbh-27" style="edgeStyle=orthogonalEdgeStyle;rounded=0;orthogonalLoop=1;jettySize=auto;html=1;exitX=0.5;exitY=1;exitDx=0;exitDy=0;entryX=0.5;entryY=1;entryDx=0;entryDy=0;strokeColor=#FF0000;fontStyle=1;strokeWidth=2;" parent="1" source="8eKBUWW6FmaFlCSRCfbh-17" target="8eKBUWW6FmaFlCSRCfbh-16" edge="1">
          <mxGeometry relative="1" as="geometry">
            <Array as="points">
              <mxPoint x="845" y="870" />
              <mxPoint x="955" y="870" />
            </Array>
          </mxGeometry>
        </mxCell>
        <mxCell id="8eKBUWW6FmaFlCSRCfbh-28" style="edgeStyle=orthogonalEdgeStyle;rounded=0;orthogonalLoop=1;jettySize=auto;html=1;exitX=1;exitY=0.5;exitDx=0;exitDy=0;entryX=1;entryY=0.75;entryDx=0;entryDy=0;strokeColor=#00CC00;fontStyle=1;strokeWidth=2;" parent="1" source="8eKBUWW6FmaFlCSRCfbh-17" target="8eKBUWW6FmaFlCSRCfbh-19" edge="1">
          <mxGeometry relative="1" as="geometry">
            <Array as="points">
              <mxPoint x="895" y="426" />
            </Array>
          </mxGeometry>
        </mxCell>
        <mxCell id="8eKBUWW6FmaFlCSRCfbh-17" value="IF &lt;br&gt;APPLYING &lt;br&gt;WITH &lt;br&gt;P/G/I" style="rhombus;whiteSpace=wrap;html=1;rounded=0;fontStyle=1;strokeWidth=2;" parent="1" vertex="1">
          <mxGeometry x="795" y="770" width="100" height="80" as="geometry" />
        </mxCell>
        <mxCell id="8eKBUWW6FmaFlCSRCfbh-35" style="edgeStyle=orthogonalEdgeStyle;rounded=0;orthogonalLoop=1;jettySize=auto;html=1;exitX=1;exitY=0.25;exitDx=0;exitDy=0;entryX=0.5;entryY=0;entryDx=0;entryDy=0;strokeColor=#00CC00;fontStyle=1;strokeWidth=2;" parent="1" source="8eKBUWW6FmaFlCSRCfbh-18" target="8eKBUWW6FmaFlCSRCfbh-36" edge="1">
          <mxGeometry relative="1" as="geometry">
            <mxPoint x="1190" y="349" as="targetPoint" />
          </mxGeometry>
        </mxCell>
        <mxCell id="8eKBUWW6FmaFlCSRCfbh-18" value="READS THE CONSENT FORM" style="rounded=0;whiteSpace=wrap;html=1;fontStyle=1;strokeWidth=2;" parent="1" vertex="1">
          <mxGeometry x="620" y="180" width="120" height="110" as="geometry" />
        </mxCell>
        <mxCell id="8eKBUWW6FmaFlCSRCfbh-34" style="edgeStyle=orthogonalEdgeStyle;rounded=0;orthogonalLoop=1;jettySize=auto;html=1;exitX=1;exitY=0.25;exitDx=0;exitDy=0;entryX=0.5;entryY=0;entryDx=0;entryDy=0;strokeColor=#00CC00;fontStyle=1;strokeWidth=2;jumpStyle=arc;jumpSize=11;" parent="1" source="8eKBUWW6FmaFlCSRCfbh-19" target="8eKBUWW6FmaFlCSRCfbh-36" edge="1">
          <mxGeometry relative="1" as="geometry">
            <mxPoint x="1162.5" y="371.5" as="targetPoint" />
          </mxGeometry>
        </mxCell>
        <mxCell id="8eKBUWW6FmaFlCSRCfbh-19" value="BOTH READ THE CONSENT FORM" style="rounded=0;whiteSpace=wrap;html=1;fontStyle=1;strokeWidth=2;" parent="1" vertex="1">
          <mxGeometry x="620" y="344" width="120" height="110" as="geometry" />
        </mxCell>
        <mxCell id="8eKBUWW6FmaFlCSRCfbh-33" style="edgeStyle=orthogonalEdgeStyle;rounded=0;orthogonalLoop=1;jettySize=auto;html=1;exitX=1;exitY=0.25;exitDx=0;exitDy=0;entryX=0.5;entryY=0;entryDx=0;entryDy=0;strokeColor=#00CC00;fontStyle=1;strokeWidth=2;jumpStyle=arc;jumpSize=11;" parent="1" source="8eKBUWW6FmaFlCSRCfbh-20" target="8eKBUWW6FmaFlCSRCfbh-36" edge="1">
          <mxGeometry relative="1" as="geometry">
            <mxPoint x="1162.5" y="416.5" as="targetPoint" />
            <Array as="points">
              <mxPoint x="1095" y="518" />
            </Array>
          </mxGeometry>
        </mxCell>
        <mxCell id="8eKBUWW6FmaFlCSRCfbh-20" value="P/G/I READS THE CONSENT FORM" style="rounded=0;whiteSpace=wrap;html=1;fontStyle=1;strokeWidth=2;" parent="1" vertex="1">
          <mxGeometry x="620" y="490" width="120" height="110" as="geometry" />
        </mxCell>
        <mxCell id="r7Afv0gRqrm4WA9c9OII-191" style="edgeStyle=orthogonalEdgeStyle;rounded=0;orthogonalLoop=1;jettySize=auto;html=1;exitX=0.5;exitY=0;exitDx=0;exitDy=0;exitPerimeter=0;entryX=0.5;entryY=1;entryDx=0;entryDy=0;strokeColor=#00CC00;fontStyle=1;strokeWidth=2;" parent="1" source="8eKBUWW6FmaFlCSRCfbh-30" target="r7Afv0gRqrm4WA9c9OII-190" edge="1">
          <mxGeometry relative="1" as="geometry">
            <Array as="points">
              <mxPoint x="1800" y="840" />
            </Array>
          </mxGeometry>
        </mxCell>
        <mxCell id="8eKBUWW6FmaFlCSRCfbh-30" value="&lt;span style=&quot;border-color: var(--border-color);&quot;&gt;&lt;b&gt;TERMINATE PROCESS:&lt;br&gt;&lt;/b&gt;&lt;/span&gt;WITH ERROR MESSAGE" style="strokeWidth=2;html=1;shape=mxgraph.flowchart.terminator;whiteSpace=wrap;fillColor=#f8cecc;strokeColor=#b85450;" parent="1" vertex="1">
          <mxGeometry x="1720" y="1478" width="160" height="60" as="geometry" />
        </mxCell>
        <mxCell id="8eKBUWW6FmaFlCSRCfbh-40" style="edgeStyle=orthogonalEdgeStyle;rounded=0;orthogonalLoop=1;jettySize=auto;html=1;exitX=1;exitY=0.25;exitDx=0;exitDy=0;entryX=0;entryY=0.5;entryDx=0;entryDy=0;strokeColor=#00CC00;fontStyle=1;strokeWidth=2;" parent="1" source="8eKBUWW6FmaFlCSRCfbh-36" target="8eKBUWW6FmaFlCSRCfbh-37" edge="1">
          <mxGeometry relative="1" as="geometry" />
        </mxCell>
        <mxCell id="8eKBUWW6FmaFlCSRCfbh-36" value="WAIT FOR PARTICIPANT(s) TO READ&lt;br&gt;-----------------&lt;br&gt;AND OFFER SUPPORT FOR IMMEDIATE QUESTIONS" style="rounded=0;whiteSpace=wrap;html=1;fontStyle=1;strokeWidth=2;" parent="1" vertex="1">
          <mxGeometry x="1035" y="670" width="120" height="140" as="geometry" />
        </mxCell>
        <mxCell id="8eKBUWW6FmaFlCSRCfbh-42" style="edgeStyle=orthogonalEdgeStyle;rounded=0;orthogonalLoop=1;jettySize=auto;html=1;exitX=0.5;exitY=1;exitDx=0;exitDy=0;entryX=0.5;entryY=0;entryDx=0;entryDy=0;strokeColor=#00CC00;fontStyle=1;strokeWidth=2;" parent="1" source="8eKBUWW6FmaFlCSRCfbh-37" target="8eKBUWW6FmaFlCSRCfbh-41" edge="1">
          <mxGeometry relative="1" as="geometry" />
        </mxCell>
        <mxCell id="8eKBUWW6FmaFlCSRCfbh-44" value="" style="edgeStyle=orthogonalEdgeStyle;rounded=0;orthogonalLoop=1;jettySize=auto;html=1;entryX=0;entryY=0.25;entryDx=0;entryDy=0;strokeColor=#00CC00;fontStyle=1;strokeWidth=2;" parent="1" source="8eKBUWW6FmaFlCSRCfbh-37" target="8eKBUWW6FmaFlCSRCfbh-43" edge="1">
          <mxGeometry relative="1" as="geometry" />
        </mxCell>
        <mxCell id="8eKBUWW6FmaFlCSRCfbh-47" style="edgeStyle=orthogonalEdgeStyle;rounded=0;orthogonalLoop=1;jettySize=auto;html=1;exitX=0.25;exitY=0;exitDx=0;exitDy=0;entryX=0.25;entryY=1;entryDx=0;entryDy=0;strokeColor=#00CC00;fontStyle=1;strokeWidth=2;" parent="1" source="8eKBUWW6FmaFlCSRCfbh-37" target="8eKBUWW6FmaFlCSRCfbh-46" edge="1">
          <mxGeometry relative="1" as="geometry" />
        </mxCell>
        <mxCell id="8eKBUWW6FmaFlCSRCfbh-37" value="ORALLY EXPLAINS CONSENT DOCUMENT OFFERING Q&amp;amp;A" style="rounded=0;whiteSpace=wrap;html=1;fontStyle=1;strokeWidth=2;" parent="1" vertex="1">
          <mxGeometry x="1181" y="670" width="130" height="70" as="geometry" />
        </mxCell>
        <mxCell id="8eKBUWW6FmaFlCSRCfbh-41" value="PROVIDE CONTACT DETAILS FOR FURTHER SUPPORT" style="rounded=0;whiteSpace=wrap;html=1;fontStyle=1;strokeWidth=2;" parent="1" vertex="1">
          <mxGeometry x="1181" y="780" width="130" height="60" as="geometry" />
        </mxCell>
        <mxCell id="8eKBUWW6FmaFlCSRCfbh-54" style="edgeStyle=orthogonalEdgeStyle;rounded=0;orthogonalLoop=1;jettySize=auto;html=1;exitX=0.5;exitY=0;exitDx=0;exitDy=0;entryX=0.5;entryY=1;entryDx=0;entryDy=0;strokeColor=#00CC00;fontStyle=1;strokeWidth=2;" parent="1" source="8eKBUWW6FmaFlCSRCfbh-43" target="8eKBUWW6FmaFlCSRCfbh-53" edge="1">
          <mxGeometry relative="1" as="geometry" />
        </mxCell>
        <mxCell id="8eKBUWW6FmaFlCSRCfbh-43" value="REQUEST EXPLICIT CONSENT AS SIGNATURE/THUMB PRINT&lt;br&gt;---------------------&lt;br&gt;ACCESSIBILITY FEATURES FOR SPECIAL CASE" style="whiteSpace=wrap;html=1;rounded=0;fontStyle=1;strokeWidth=2;" parent="1" vertex="1">
          <mxGeometry x="1361" y="674" width="120" height="125" as="geometry" />
        </mxCell>
        <mxCell id="8eKBUWW6FmaFlCSRCfbh-48" style="edgeStyle=orthogonalEdgeStyle;rounded=0;orthogonalLoop=1;jettySize=auto;html=1;exitX=0.75;exitY=1;exitDx=0;exitDy=0;entryX=0.75;entryY=0;entryDx=0;entryDy=0;strokeColor=#00CC00;fontStyle=1;strokeWidth=2;" parent="1" source="8eKBUWW6FmaFlCSRCfbh-46" target="8eKBUWW6FmaFlCSRCfbh-37" edge="1">
          <mxGeometry relative="1" as="geometry" />
        </mxCell>
        <mxCell id="8eKBUWW6FmaFlCSRCfbh-46" value="PARTICIPANT(s) ENGAGE IN Q&amp;amp;A" style="whiteSpace=wrap;html=1;rounded=0;fontStyle=1;strokeWidth=2;" parent="1" vertex="1">
          <mxGeometry x="1181" y="260" width="130" height="250" as="geometry" />
        </mxCell>
        <mxCell id="8eKBUWW6FmaFlCSRCfbh-70" style="edgeStyle=orthogonalEdgeStyle;rounded=0;orthogonalLoop=1;jettySize=auto;html=1;exitX=0.5;exitY=0;exitDx=0;exitDy=0;strokeColor=#FF0000;fontStyle=1;strokeWidth=2;entryX=0;entryY=0.5;entryDx=0;entryDy=0;entryPerimeter=0;" parent="1" source="8eKBUWW6FmaFlCSRCfbh-51" target="8eKBUWW6FmaFlCSRCfbh-30" edge="1">
          <mxGeometry relative="1" as="geometry">
            <mxPoint x="1511" y="1450" as="targetPoint" />
            <Array as="points">
              <mxPoint x="1421" y="250" />
              <mxPoint x="1511" y="250" />
              <mxPoint x="1511" y="1508" />
            </Array>
          </mxGeometry>
        </mxCell>
        <mxCell id="r7Afv0gRqrm4WA9c9OII-166" style="edgeStyle=orthogonalEdgeStyle;rounded=0;orthogonalLoop=1;jettySize=auto;html=1;exitX=1;exitY=0.5;exitDx=0;exitDy=0;strokeColor=#00CC00;fontStyle=1;strokeWidth=2;jumpStyle=arc;jumpSize=11;" parent="1" source="8eKBUWW6FmaFlCSRCfbh-51" target="r7Afv0gRqrm4WA9c9OII-164" edge="1">
          <mxGeometry relative="1" as="geometry" />
        </mxCell>
        <mxCell id="8eKBUWW6FmaFlCSRCfbh-51" value="IF CONSENT PROVIDED" style="rhombus;whiteSpace=wrap;html=1;rounded=0;fontStyle=1;strokeWidth=2;" parent="1" vertex="1">
          <mxGeometry x="1371" y="260" width="100" height="90" as="geometry" />
        </mxCell>
        <mxCell id="8eKBUWW6FmaFlCSRCfbh-69" style="edgeStyle=orthogonalEdgeStyle;rounded=0;orthogonalLoop=1;jettySize=auto;html=1;exitX=0.5;exitY=0;exitDx=0;exitDy=0;entryX=0;entryY=0.5;entryDx=0;entryDy=0;entryPerimeter=0;strokeColor=#FF0000;fontStyle=1;strokeWidth=2;jumpStyle=none;jumpSize=11;" parent="1" source="8eKBUWW6FmaFlCSRCfbh-52" target="8eKBUWW6FmaFlCSRCfbh-30" edge="1">
          <mxGeometry relative="1" as="geometry">
            <Array as="points">
              <mxPoint x="1421" y="410" />
              <mxPoint x="1491" y="410" />
              <mxPoint x="1491" y="1508" />
            </Array>
            <mxPoint x="1700" y="1508" as="targetPoint" />
            <mxPoint x="1401" y="420" as="sourcePoint" />
          </mxGeometry>
        </mxCell>
        <mxCell id="8eKBUWW6FmaFlCSRCfbh-52" value="IF CONSENT PROVIDED" style="rhombus;whiteSpace=wrap;html=1;rounded=0;fontStyle=1;strokeWidth=2;" parent="1" vertex="1">
          <mxGeometry x="1371" y="420" width="100" height="90" as="geometry" />
        </mxCell>
        <mxCell id="8eKBUWW6FmaFlCSRCfbh-55" style="edgeStyle=orthogonalEdgeStyle;rounded=0;orthogonalLoop=1;jettySize=auto;html=1;exitX=0.5;exitY=0;exitDx=0;exitDy=0;entryX=0.5;entryY=1;entryDx=0;entryDy=0;strokeColor=#00CC00;fontStyle=1;strokeWidth=2;" parent="1" source="8eKBUWW6FmaFlCSRCfbh-53" target="8eKBUWW6FmaFlCSRCfbh-52" edge="1">
          <mxGeometry relative="1" as="geometry" />
        </mxCell>
        <mxCell id="8eKBUWW6FmaFlCSRCfbh-56" style="edgeStyle=orthogonalEdgeStyle;rounded=0;orthogonalLoop=1;jettySize=auto;html=1;exitX=0;exitY=0.5;exitDx=0;exitDy=0;entryX=0;entryY=0.5;entryDx=0;entryDy=0;strokeColor=#FF0000;fontStyle=1;strokeWidth=2;" parent="1" source="8eKBUWW6FmaFlCSRCfbh-53" target="8eKBUWW6FmaFlCSRCfbh-51" edge="1">
          <mxGeometry relative="1" as="geometry" />
        </mxCell>
        <mxCell id="8eKBUWW6FmaFlCSRCfbh-53" value="IF APPLYING WITH P/G/I" style="rhombus;whiteSpace=wrap;html=1;rounded=0;fontStyle=1;strokeWidth=2;" parent="1" vertex="1">
          <mxGeometry x="1371" y="530" width="100" height="90" as="geometry" />
        </mxCell>
        <mxCell id="8eKBUWW6FmaFlCSRCfbh-72" style="edgeStyle=orthogonalEdgeStyle;rounded=0;orthogonalLoop=1;jettySize=auto;html=1;exitX=1;exitY=0.5;exitDx=0;exitDy=0;exitPerimeter=0;entryX=0.5;entryY=1;entryDx=0;entryDy=0;strokeColor=#00CC00;fontStyle=1;strokeWidth=2;" parent="1" source="8eKBUWW6FmaFlCSRCfbh-58" target="8eKBUWW6FmaFlCSRCfbh-71" edge="1">
          <mxGeometry relative="1" as="geometry" />
        </mxCell>
        <mxCell id="8eKBUWW6FmaFlCSRCfbh-58" value="UPDATE RID WITH CONSENT RECEIVED STATUS" style="whiteSpace=wrap;html=1;rounded=0;fontStyle=1;strokeWidth=2;shape=label;boundedLbl=1;backgroundOutline=1;size=15;" parent="1" vertex="1">
          <mxGeometry x="1540" y="1328" width="120" height="60" as="geometry" />
        </mxCell>
        <mxCell id="r7Afv0gRqrm4WA9c9OII-192" style="edgeStyle=orthogonalEdgeStyle;rounded=0;orthogonalLoop=1;jettySize=auto;html=1;exitX=1;exitY=0.5;exitDx=0;exitDy=0;exitPerimeter=0;entryX=0;entryY=0.5;entryDx=0;entryDy=0;strokeColor=#00CC00;fontStyle=1;strokeWidth=2;" parent="1" source="8eKBUWW6FmaFlCSRCfbh-59" target="r7Afv0gRqrm4WA9c9OII-190" edge="1">
          <mxGeometry relative="1" as="geometry">
            <Array as="points">
              <mxPoint x="1716" y="1440" />
              <mxPoint x="1716" y="800" />
            </Array>
          </mxGeometry>
        </mxCell>
        <mxCell id="8eKBUWW6FmaFlCSRCfbh-59" value="&lt;span style=&quot;border-color: var(--border-color);&quot;&gt;&lt;b&gt;TERMINATE PROCESS:&lt;br&gt;&lt;/b&gt;&lt;/span&gt;NOTIFY TO RESCHEDULE APPLOINTMENT" style="strokeWidth=2;html=1;shape=mxgraph.flowchart.terminator;whiteSpace=wrap;fillColor=#f8cecc;strokeColor=#b85450;" parent="1" vertex="1">
          <mxGeometry x="1540" y="1410" width="160" height="60" as="geometry" />
        </mxCell>
        <mxCell id="8eKBUWW6FmaFlCSRCfbh-62" style="edgeStyle=orthogonalEdgeStyle;rounded=0;orthogonalLoop=1;jettySize=auto;html=1;exitX=0.5;exitY=1;exitDx=0;exitDy=0;entryX=0;entryY=0.5;entryDx=0;entryDy=0;entryPerimeter=0;strokeColor=#FF0000;fontStyle=1;strokeWidth=2;jumpStyle=arc;jumpSize=11;" parent="1" source="8eKBUWW6FmaFlCSRCfbh-60" target="8eKBUWW6FmaFlCSRCfbh-59" edge="1">
          <mxGeometry relative="1" as="geometry">
            <Array as="points">
              <mxPoint x="530" y="1380" />
              <mxPoint x="1130" y="1380" />
              <mxPoint x="1130" y="1440" />
            </Array>
          </mxGeometry>
        </mxCell>
        <mxCell id="r7Afv0gRqrm4WA9c9OII-162" style="edgeStyle=orthogonalEdgeStyle;rounded=0;orthogonalLoop=1;jettySize=auto;html=1;exitX=0.5;exitY=0;exitDx=0;exitDy=0;entryX=0.5;entryY=1;entryDx=0;entryDy=0;strokeColor=#00CC00;fontStyle=1;strokeWidth=2;" parent="1" source="wvXzQpL4P3gCwvihpxaJ-1" target="8eKBUWW6FmaFlCSRCfbh-6" edge="1">
          <mxGeometry relative="1" as="geometry" />
        </mxCell>
        <mxCell id="wvXzQpL4P3gCwvihpxaJ-6" style="edgeStyle=orthogonalEdgeStyle;rounded=0;orthogonalLoop=1;jettySize=auto;html=1;exitX=1;exitY=0.5;exitDx=0;exitDy=0;entryX=0;entryY=0.5;entryDx=0;entryDy=0;labelBackgroundColor=none;strokeColor=#00CC00;fontStyle=1;strokeWidth=2;" parent="1" source="8eKBUWW6FmaFlCSRCfbh-60" target="wvXzQpL4P3gCwvihpxaJ-1" edge="1">
          <mxGeometry relative="1" as="geometry" />
        </mxCell>
        <mxCell id="8eKBUWW6FmaFlCSRCfbh-60" value="IF &lt;br&gt;ARRIVAL ON/BEFORE TIME" style="rounded=0;whiteSpace=wrap;html=1;fontStyle=1;strokeWidth=2;shape=rhombus;perimeter=rhombusPerimeter;" parent="1" vertex="1">
          <mxGeometry x="479" y="1305" width="100" height="70" as="geometry" />
        </mxCell>
        <mxCell id="8eKBUWW6FmaFlCSRCfbh-76" style="edgeStyle=orthogonalEdgeStyle;rounded=0;orthogonalLoop=1;jettySize=auto;html=1;exitX=0.5;exitY=0;exitDx=0;exitDy=0;entryX=0.5;entryY=1;entryDx=0;entryDy=0;strokeColor=#00CC00;fontStyle=1;strokeWidth=2;" parent="1" source="8eKBUWW6FmaFlCSRCfbh-71" target="8eKBUWW6FmaFlCSRCfbh-73" edge="1">
          <mxGeometry relative="1" as="geometry" />
        </mxCell>
        <mxCell id="8eKBUWW6FmaFlCSRCfbh-71" value="PRINT ACKNOWLEDGEMENT OF CONSENT RECEIVED" style="rounded=0;whiteSpace=wrap;html=1;fontStyle=1;strokeWidth=2;" parent="1" vertex="1">
          <mxGeometry x="1621" y="670" width="130" height="60" as="geometry" />
        </mxCell>
        <mxCell id="8eKBUWW6FmaFlCSRCfbh-75" style="edgeStyle=orthogonalEdgeStyle;rounded=0;orthogonalLoop=1;jettySize=auto;html=1;exitX=1;exitY=0.5;exitDx=0;exitDy=0;strokeColor=#00CC00;fontStyle=1;strokeWidth=2;" parent="1" source="r7Afv0gRqrm4WA9c9OII-188" target="r7Afv0gRqrm4WA9c9OII-184" edge="1">
          <mxGeometry relative="1" as="geometry">
            <mxPoint x="1930" y="1310" as="targetPoint" />
          </mxGeometry>
        </mxCell>
        <mxCell id="r7Afv0gRqrm4WA9c9OII-189" style="edgeStyle=orthogonalEdgeStyle;rounded=0;orthogonalLoop=1;jettySize=auto;html=1;exitX=0.5;exitY=0;exitDx=0;exitDy=0;entryX=0.5;entryY=1;entryDx=0;entryDy=0;strokeColor=#00CC00;fontStyle=1;strokeWidth=2;" parent="1" source="8eKBUWW6FmaFlCSRCfbh-73" target="r7Afv0gRqrm4WA9c9OII-188" edge="1">
          <mxGeometry relative="1" as="geometry" />
        </mxCell>
        <mxCell id="8eKBUWW6FmaFlCSRCfbh-73" value="RECEIVES ACKNOWLEDGEMENT&lt;br&gt;OF CONSENT PROVIDED" style="rounded=0;whiteSpace=wrap;html=1;fontStyle=1;strokeWidth=2;" parent="1" vertex="1">
          <mxGeometry x="1621" y="410" width="130" height="90" as="geometry" />
        </mxCell>
        <mxCell id="r7Afv0gRqrm4WA9c9OII-46" value="PUBLIC NETWORK&lt;br style=&quot;border-color: var(--border-color);&quot;&gt;SYSTEMS (CLIENT)" style="text;html=1;align=center;verticalAlign=middle;resizable=0;points=[];autosize=1;strokeColor=none;fillColor=none;fontStyle=1;fontSize=25;strokeWidth=2;horizontal=0;" parent="1" vertex="1">
          <mxGeometry x="90" y="971.75" width="70" height="190" as="geometry" />
        </mxCell>
        <mxCell id="r7Afv0gRqrm4WA9c9OII-47" value="PRIVATE NETWORK&lt;br&gt;SYSTEMS (SERVER)" style="text;html=1;align=center;verticalAlign=middle;resizable=0;points=[];autosize=1;strokeColor=none;fillColor=none;fontStyle=1;fontSize=25;strokeWidth=2;horizontal=0;" parent="1" vertex="1">
          <mxGeometry x="100" y="1255" width="80" height="260" as="geometry" />
        </mxCell>
        <mxCell id="r7Afv0gRqrm4WA9c9OII-78" value="" style="group" parent="1" vertex="1" connectable="0">
          <mxGeometry x="200" y="990" width="150" height="78" as="geometry" />
        </mxCell>
        <mxCell id="r7Afv0gRqrm4WA9c9OII-79" value="MASK &amp;amp; ENCRYPT RID AND APPOINTMENT DETAILS&amp;nbsp;" style="rounded=0;whiteSpace=wrap;html=1;fontStyle=1;strokeWidth=2;" parent="r7Afv0gRqrm4WA9c9OII-78" vertex="1">
          <mxGeometry x="30" y="9" width="120" height="60" as="geometry" />
        </mxCell>
        <mxCell id="r7Afv0gRqrm4WA9c9OII-80" value="CA" style="ellipse;whiteSpace=wrap;html=1;fillColor=#dae8fc;strokeColor=#6c8ebf;gradientColor=#7ea6e0;fontStyle=1" parent="r7Afv0gRqrm4WA9c9OII-78" vertex="1">
          <mxGeometry y="52" width="30" height="26" as="geometry" />
        </mxCell>
        <mxCell id="r7Afv0gRqrm4WA9c9OII-81" value="HSM" style="ellipse;whiteSpace=wrap;html=1;fillColor=#dae8fc;strokeColor=#6c8ebf;gradientColor=#7ea6e0;fontStyle=1" parent="r7Afv0gRqrm4WA9c9OII-78" vertex="1">
          <mxGeometry y="26" width="30" height="26" as="geometry" />
        </mxCell>
        <mxCell id="r7Afv0gRqrm4WA9c9OII-82" value="KM" style="ellipse;whiteSpace=wrap;html=1;fillColor=#dae8fc;strokeColor=#6c8ebf;gradientColor=#7ea6e0;fontStyle=1" parent="r7Afv0gRqrm4WA9c9OII-78" vertex="1">
          <mxGeometry width="30" height="26" as="geometry" />
        </mxCell>
        <mxCell id="r7Afv0gRqrm4WA9c9OII-151" style="edgeStyle=orthogonalEdgeStyle;rounded=0;orthogonalLoop=1;jettySize=auto;html=1;exitX=0.5;exitY=1;exitDx=0;exitDy=0;entryX=0.5;entryY=0;entryDx=0;entryDy=0;strokeColor=#00CC00;fontStyle=1;strokeWidth=2;" parent="1" source="r7Afv0gRqrm4WA9c9OII-107" target="8eKBUWW6FmaFlCSRCfbh-4" edge="1">
          <mxGeometry relative="1" as="geometry">
            <Array as="points">
              <mxPoint x="460" y="600" />
              <mxPoint x="300" y="600" />
            </Array>
          </mxGeometry>
        </mxCell>
        <mxCell id="r7Afv0gRqrm4WA9c9OII-107" value="VISIT THIRD PARTY/ENROLMENT CENTRE WITH APPOINTMENT CONFIRMATION LETTER" style="rounded=0;whiteSpace=wrap;html=1;fontStyle=1;strokeWidth=2;" parent="1" vertex="1">
          <mxGeometry x="400" y="255" width="120" height="100" as="geometry" />
        </mxCell>
        <mxCell id="r7Afv0gRqrm4WA9c9OII-149" style="edgeStyle=orthogonalEdgeStyle;rounded=0;orthogonalLoop=1;jettySize=auto;html=1;exitX=1;exitY=0.5;exitDx=0;exitDy=0;entryX=0;entryY=0.5;entryDx=0;entryDy=0;strokeColor=#00CC00;fontStyle=1;strokeWidth=2;" parent="1" source="r7Afv0gRqrm4WA9c9OII-108" target="r7Afv0gRqrm4WA9c9OII-107" edge="1">
          <mxGeometry relative="1" as="geometry" />
        </mxCell>
        <mxCell id="r7Afv0gRqrm4WA9c9OII-150" style="edgeStyle=orthogonalEdgeStyle;rounded=0;orthogonalLoop=1;jettySize=auto;html=1;exitX=0.5;exitY=1;exitDx=0;exitDy=0;strokeColor=#FF0000;fontStyle=1;strokeWidth=2;" parent="1" source="r7Afv0gRqrm4WA9c9OII-108" target="KI7Xn0BbtmQMHCuYdvjg-1" edge="1">
          <mxGeometry relative="1" as="geometry" />
        </mxCell>
        <mxCell id="r7Afv0gRqrm4WA9c9OII-108" value="IF SELF &lt;br&gt;APPLICATION &lt;br&gt;WITH DOC." style="rhombus;whiteSpace=wrap;html=1;rounded=0;fontStyle=1;strokeWidth=2;" parent="1" vertex="1">
          <mxGeometry x="245" y="265" width="110" height="80" as="geometry" />
        </mxCell>
        <mxCell id="r7Afv0gRqrm4WA9c9OII-110" value="USER" style="shape=umlActor;verticalLabelPosition=bottom;verticalAlign=top;html=1;outlineConnect=0;fontStyle=1" parent="1" vertex="1">
          <mxGeometry x="170" y="225" width="30" height="60" as="geometry" />
        </mxCell>
        <mxCell id="r7Afv0gRqrm4WA9c9OII-111" value="P/G/I" style="shape=umlActor;verticalLabelPosition=bottom;verticalAlign=top;html=1;outlineConnect=0;fontStyle=1" parent="1" vertex="1">
          <mxGeometry x="170" y="470" width="30" height="60" as="geometry" />
        </mxCell>
        <mxCell id="r7Afv0gRqrm4WA9c9OII-114" value="ADMIN" style="shape=umlActor;verticalLabelPosition=bottom;verticalAlign=top;html=1;outlineConnect=0;fontStyle=1" parent="1" vertex="1">
          <mxGeometry x="170" y="718" width="30" height="60" as="geometry" />
        </mxCell>
        <mxCell id="r7Afv0gRqrm4WA9c9OII-126" value="&lt;font style=&quot;font-size: 14px;&quot;&gt;PUBLIC NETWORK&lt;/font&gt;" style="swimlane;whiteSpace=wrap;html=1;" parent="1" vertex="1">
          <mxGeometry x="2030" y="950" width="200" height="167" as="geometry" />
        </mxCell>
        <mxCell id="r7Afv0gRqrm4WA9c9OII-127" value="DNS SERVERS" style="text;html=1;strokeColor=none;fillColor=none;align=center;verticalAlign=middle;whiteSpace=wrap;rounded=0;fontSize=14;" parent="r7Afv0gRqrm4WA9c9OII-126" vertex="1">
          <mxGeometry y="27" width="200" height="28" as="geometry" />
        </mxCell>
        <mxCell id="r7Afv0gRqrm4WA9c9OII-128" value="FTP SERVERS" style="text;html=1;strokeColor=none;fillColor=none;align=center;verticalAlign=middle;whiteSpace=wrap;rounded=0;fontSize=14;" parent="r7Afv0gRqrm4WA9c9OII-126" vertex="1">
          <mxGeometry y="55" width="200" height="28" as="geometry" />
        </mxCell>
        <mxCell id="r7Afv0gRqrm4WA9c9OII-129" value="MAIL SERVERS" style="text;html=1;strokeColor=none;fillColor=none;align=center;verticalAlign=middle;whiteSpace=wrap;rounded=0;fontSize=14;" parent="r7Afv0gRqrm4WA9c9OII-126" vertex="1">
          <mxGeometry y="83" width="200" height="28" as="geometry" />
        </mxCell>
        <mxCell id="r7Afv0gRqrm4WA9c9OII-130" value="PROXY SERVERS" style="text;html=1;strokeColor=none;fillColor=none;align=center;verticalAlign=middle;whiteSpace=wrap;rounded=0;fontSize=14;" parent="r7Afv0gRqrm4WA9c9OII-126" vertex="1">
          <mxGeometry y="111" width="200" height="28" as="geometry" />
        </mxCell>
        <mxCell id="r7Afv0gRqrm4WA9c9OII-131" value="WEB SERVERS" style="text;html=1;strokeColor=none;fillColor=none;align=center;verticalAlign=middle;whiteSpace=wrap;rounded=0;fontSize=14;" parent="r7Afv0gRqrm4WA9c9OII-126" vertex="1">
          <mxGeometry y="139" width="200" height="28" as="geometry" />
        </mxCell>
        <mxCell id="r7Afv0gRqrm4WA9c9OII-132" value="&lt;font style=&quot;font-size: 14px;&quot;&gt;LEGEND&lt;/font&gt;" style="swimlane;whiteSpace=wrap;html=1;" parent="1" vertex="1">
          <mxGeometry x="2030" y="139" width="200" height="231" as="geometry" />
        </mxCell>
        <mxCell id="r7Afv0gRqrm4WA9c9OII-133" value="KM" style="ellipse;whiteSpace=wrap;html=1;fillColor=#dae8fc;strokeColor=#6c8ebf;gradientColor=#7ea6e0;fontStyle=1" parent="r7Afv0gRqrm4WA9c9OII-132" vertex="1">
          <mxGeometry x="10" y="30" width="30" height="26" as="geometry" />
        </mxCell>
        <mxCell id="r7Afv0gRqrm4WA9c9OII-134" value="IDA" style="ellipse;whiteSpace=wrap;html=1;fillColor=#dae8fc;strokeColor=#6c8ebf;gradientColor=#7ea6e0;fontStyle=1" parent="r7Afv0gRqrm4WA9c9OII-132" vertex="1">
          <mxGeometry x="10" y="131" width="30" height="26" as="geometry" />
        </mxCell>
        <mxCell id="r7Afv0gRqrm4WA9c9OII-135" value="HSM" style="ellipse;whiteSpace=wrap;html=1;fillColor=#dae8fc;strokeColor=#6c8ebf;gradientColor=#7ea6e0;fontStyle=1" parent="r7Afv0gRqrm4WA9c9OII-132" vertex="1">
          <mxGeometry x="10" y="91" width="30" height="26" as="geometry" />
        </mxCell>
        <mxCell id="r7Afv0gRqrm4WA9c9OII-136" value="KR" style="ellipse;whiteSpace=wrap;html=1;fillColor=#dae8fc;strokeColor=#6c8ebf;gradientColor=#7ea6e0;fontStyle=1" parent="r7Afv0gRqrm4WA9c9OII-132" vertex="1">
          <mxGeometry x="10" y="59" width="30" height="26" as="geometry" />
        </mxCell>
        <mxCell id="r7Afv0gRqrm4WA9c9OII-137" value="Key Manager" style="text;html=1;strokeColor=none;fillColor=none;align=center;verticalAlign=middle;whiteSpace=wrap;rounded=0;fontSize=14;" parent="r7Afv0gRqrm4WA9c9OII-132" vertex="1">
          <mxGeometry x="40" y="30" width="160" height="28" as="geometry" />
        </mxCell>
        <mxCell id="r7Afv0gRqrm4WA9c9OII-138" value="Key Revocation" style="text;html=1;strokeColor=none;fillColor=none;align=center;verticalAlign=middle;whiteSpace=wrap;rounded=0;fontSize=14;" parent="r7Afv0gRqrm4WA9c9OII-132" vertex="1">
          <mxGeometry x="40" y="58" width="160" height="28" as="geometry" />
        </mxCell>
        <mxCell id="r7Afv0gRqrm4WA9c9OII-139" value="Hardware Security Module" style="text;html=1;strokeColor=none;fillColor=none;align=center;verticalAlign=middle;whiteSpace=wrap;rounded=0;fontSize=14;" parent="r7Afv0gRqrm4WA9c9OII-132" vertex="1">
          <mxGeometry x="40" y="90" width="160" height="28" as="geometry" />
        </mxCell>
        <mxCell id="r7Afv0gRqrm4WA9c9OII-140" value="ID Authentication (DB)" style="text;html=1;strokeColor=none;fillColor=none;align=center;verticalAlign=middle;whiteSpace=wrap;rounded=0;fontSize=14;" parent="r7Afv0gRqrm4WA9c9OII-132" vertex="1">
          <mxGeometry x="40" y="130" width="160" height="28" as="geometry" />
        </mxCell>
        <mxCell id="r7Afv0gRqrm4WA9c9OII-141" value="AC" style="ellipse;whiteSpace=wrap;html=1;fillColor=#dae8fc;strokeColor=#6c8ebf;gradientColor=#7ea6e0;fontStyle=1" parent="r7Afv0gRqrm4WA9c9OII-132" vertex="1">
          <mxGeometry x="10" y="161" width="30" height="26" as="geometry" />
        </mxCell>
        <mxCell id="r7Afv0gRqrm4WA9c9OII-142" value="Access Control" style="text;html=1;strokeColor=none;fillColor=none;align=center;verticalAlign=middle;whiteSpace=wrap;rounded=0;fontSize=14;" parent="r7Afv0gRqrm4WA9c9OII-132" vertex="1">
          <mxGeometry x="40" y="160" width="160" height="28" as="geometry" />
        </mxCell>
        <mxCell id="r7Afv0gRqrm4WA9c9OII-143" value="Certificate Authority" style="text;html=1;strokeColor=none;fillColor=none;align=center;verticalAlign=middle;whiteSpace=wrap;rounded=0;fontSize=14;" parent="r7Afv0gRqrm4WA9c9OII-132" vertex="1">
          <mxGeometry x="40" y="190" width="160" height="28" as="geometry" />
        </mxCell>
        <mxCell id="r7Afv0gRqrm4WA9c9OII-144" value="CA" style="ellipse;whiteSpace=wrap;html=1;fillColor=#dae8fc;strokeColor=#6c8ebf;gradientColor=#7ea6e0;fontStyle=1" parent="r7Afv0gRqrm4WA9c9OII-132" vertex="1">
          <mxGeometry x="10" y="191" width="30" height="26" as="geometry" />
        </mxCell>
        <mxCell id="r7Afv0gRqrm4WA9c9OII-155" style="edgeStyle=orthogonalEdgeStyle;rounded=0;orthogonalLoop=1;jettySize=auto;html=1;exitX=0;exitY=0.5;exitDx=0;exitDy=0;entryX=1;entryY=0.75;entryDx=0;entryDy=0;strokeColor=#00CC00;fontStyle=1;strokeWidth=2;jumpStyle=arc;jumpSize=11;" parent="1" source="r7Afv0gRqrm4WA9c9OII-152" target="KI7Xn0BbtmQMHCuYdvjg-2" edge="1">
          <mxGeometry relative="1" as="geometry">
            <Array as="points">
              <mxPoint x="380" y="1500" />
              <mxPoint x="380" y="805" />
            </Array>
          </mxGeometry>
        </mxCell>
        <mxCell id="r7Afv0gRqrm4WA9c9OII-169" style="edgeStyle=orthogonalEdgeStyle;rounded=0;orthogonalLoop=1;jettySize=auto;html=1;exitX=1;exitY=0.5;exitDx=0;exitDy=0;entryX=0.25;entryY=1;entryDx=0;entryDy=0;strokeColor=#00CC00;fontStyle=1;strokeWidth=2;jumpStyle=arc;jumpSize=11;" parent="1" source="r7Afv0gRqrm4WA9c9OII-152" target="r7Afv0gRqrm4WA9c9OII-164" edge="1">
          <mxGeometry relative="1" as="geometry">
            <Array as="points">
              <mxPoint x="910" y="1500" />
              <mxPoint x="910" y="970" />
              <mxPoint x="1554" y="970" />
            </Array>
          </mxGeometry>
        </mxCell>
        <mxCell id="r7Afv0gRqrm4WA9c9OII-152" value="IF RETRY &lt;br&gt;COUNT &amp;lt;=3" style="rhombus;whiteSpace=wrap;html=1;fontStyle=1;strokeWidth=2;fontSize=11;" parent="1" vertex="1">
          <mxGeometry x="755" y="1470" width="90" height="60" as="geometry" />
        </mxCell>
        <mxCell id="r7Afv0gRqrm4WA9c9OII-157" value="" style="edgeStyle=orthogonalEdgeStyle;rounded=0;orthogonalLoop=1;jettySize=auto;html=1;exitX=0.5;exitY=1;exitDx=0;exitDy=0;fontStyle=1;strokeWidth=2;strokeColor=#00CC00;" parent="1" source="KI7Xn0BbtmQMHCuYdvjg-1" target="8eKBUWW6FmaFlCSRCfbh-4" edge="1">
          <mxGeometry relative="1" as="geometry">
            <mxPoint x="300" y="543" as="sourcePoint" />
            <mxPoint x="300" y="760" as="targetPoint" />
          </mxGeometry>
        </mxCell>
        <mxCell id="r7Afv0gRqrm4WA9c9OII-159" style="edgeStyle=orthogonalEdgeStyle;rounded=0;orthogonalLoop=1;jettySize=auto;html=1;exitX=1;exitY=0.5;exitDx=0;exitDy=0;entryX=0;entryY=0.5;entryDx=0;entryDy=0;strokeColor=#FF0000;fontStyle=1;strokeWidth=2;" parent="1" source="8eKBUWW6FmaFlCSRCfbh-4" target="r7Afv0gRqrm4WA9c9OII-158" edge="1">
          <mxGeometry relative="1" as="geometry" />
        </mxCell>
        <mxCell id="8eKBUWW6FmaFlCSRCfbh-4" value="IF ALL PARTICIPANTS ARRIVED" style="rounded=0;whiteSpace=wrap;html=1;fontStyle=1;strokeWidth=2;shape=rhombus;perimeter=rhombusPerimeter;" parent="1" vertex="1">
          <mxGeometry x="247.5" y="659" width="105" height="80" as="geometry" />
        </mxCell>
        <mxCell id="wvXzQpL4P3gCwvihpxaJ-9" style="edgeStyle=orthogonalEdgeStyle;rounded=0;orthogonalLoop=1;jettySize=auto;html=1;exitX=0.5;exitY=1;exitDx=0;exitDy=0;entryX=1;entryY=0.25;entryDx=0;entryDy=0;labelBackgroundColor=none;strokeColor=#00CC00;fontStyle=1;strokeWidth=2;" parent="1" source="r7Afv0gRqrm4WA9c9OII-158" target="KI7Xn0BbtmQMHCuYdvjg-2" edge="1">
          <mxGeometry relative="1" as="geometry" />
        </mxCell>
        <mxCell id="r7Afv0gRqrm4WA9c9OII-158" value="WAIT FOR ALL PARTICIPANTS TO ARRIVE" style="rounded=0;whiteSpace=wrap;html=1;fontStyle=1;strokeWidth=2;" parent="1" vertex="1">
          <mxGeometry x="390" y="669" width="120" height="60" as="geometry" />
        </mxCell>
        <mxCell id="r7Afv0gRqrm4WA9c9OII-161" style="edgeStyle=orthogonalEdgeStyle;rounded=0;orthogonalLoop=1;jettySize=auto;html=1;exitX=0.5;exitY=1;exitDx=0;exitDy=0;entryX=0;entryY=0.5;entryDx=0;entryDy=0;entryPerimeter=0;strokeColor=#FF0000;fontStyle=1;strokeWidth=2;" parent="1" source="r7Afv0gRqrm4WA9c9OII-152" target="8eKBUWW6FmaFlCSRCfbh-30" edge="1">
          <mxGeometry relative="1" as="geometry">
            <Array as="points">
              <mxPoint x="1262" y="1530" />
              <mxPoint x="1262" y="1508" />
            </Array>
          </mxGeometry>
        </mxCell>
        <mxCell id="r7Afv0gRqrm4WA9c9OII-165" value="" style="edgeStyle=orthogonalEdgeStyle;rounded=0;orthogonalLoop=1;jettySize=auto;html=1;exitX=1;exitY=0.5;exitDx=0;exitDy=0;strokeColor=#00CC00;fontStyle=1;strokeWidth=2;jumpStyle=arc;jumpSize=11;" parent="1" source="8eKBUWW6FmaFlCSRCfbh-52" target="r7Afv0gRqrm4WA9c9OII-164" edge="1">
          <mxGeometry relative="1" as="geometry">
            <mxPoint x="1591" y="1290" as="targetPoint" />
            <mxPoint x="1471" y="465" as="sourcePoint" />
          </mxGeometry>
        </mxCell>
        <mxCell id="r7Afv0gRqrm4WA9c9OII-170" style="edgeStyle=orthogonalEdgeStyle;rounded=0;orthogonalLoop=1;jettySize=auto;html=1;exitX=0.5;exitY=1;exitDx=0;exitDy=0;strokeColor=#00CC00;fontStyle=1;strokeWidth=2;" parent="1" source="r7Afv0gRqrm4WA9c9OII-164" target="r7Afv0gRqrm4WA9c9OII-167" edge="1">
          <mxGeometry relative="1" as="geometry" />
        </mxCell>
        <mxCell id="r7Afv0gRqrm4WA9c9OII-164" value="SCAN AND UPLOAD CONSENT DOCUMENT" style="rounded=0;whiteSpace=wrap;html=1;fontStyle=1;strokeWidth=2;" parent="1" vertex="1">
          <mxGeometry x="1521" y="760" width="130" height="60" as="geometry" />
        </mxCell>
        <mxCell id="r7Afv0gRqrm4WA9c9OII-168" style="edgeStyle=orthogonalEdgeStyle;rounded=0;orthogonalLoop=1;jettySize=auto;html=1;exitX=0;exitY=0.5;exitDx=0;exitDy=0;strokeColor=#FF0000;fontStyle=1;strokeWidth=2;entryX=0.5;entryY=0;entryDx=0;entryDy=0;jumpStyle=arc;jumpSize=11;" parent="1" source="r7Afv0gRqrm4WA9c9OII-167" target="r7Afv0gRqrm4WA9c9OII-153" edge="1">
          <mxGeometry relative="1" as="geometry">
            <Array as="points">
              <mxPoint x="830" y="1006" />
              <mxPoint x="830" y="1390" />
              <mxPoint x="800" y="1390" />
            </Array>
          </mxGeometry>
        </mxCell>
        <mxCell id="r7Afv0gRqrm4WA9c9OII-176" value="RESET COUNTER" style="edgeStyle=orthogonalEdgeStyle;rounded=0;orthogonalLoop=1;jettySize=auto;html=1;exitX=0.5;exitY=1;exitDx=0;exitDy=0;strokeColor=#00CC00;fontStyle=1;strokeWidth=2;entryX=0.5;entryY=0;entryDx=0;entryDy=0;jumpStyle=arc;jumpSize=11;" parent="1" source="r7Afv0gRqrm4WA9c9OII-167" target="8eKBUWW6FmaFlCSRCfbh-5" edge="1">
          <mxGeometry x="0.6479" relative="1" as="geometry">
            <mxPoint y="-1" as="offset" />
            <Array as="points">
              <mxPoint x="1586" y="1270" />
              <mxPoint x="1380" y="1270" />
            </Array>
          </mxGeometry>
        </mxCell>
        <mxCell id="r7Afv0gRqrm4WA9c9OII-167" value="IF &lt;br&gt;SCAN &lt;br&gt;SUCCESS" style="rounded=0;whiteSpace=wrap;html=1;fontStyle=1;strokeWidth=2;shape=rhombus;perimeter=rhombusPerimeter;" parent="1" vertex="1">
          <mxGeometry x="1533.5" y="966" width="105" height="80" as="geometry" />
        </mxCell>
        <mxCell id="a8J7qvMZgcGEXFwhh2QZ-1" style="edgeStyle=orthogonalEdgeStyle;rounded=0;orthogonalLoop=1;jettySize=auto;html=1;exitX=0.5;exitY=1;exitDx=0;exitDy=0;strokeColor=#FF0000;fontStyle=1;strokeWidth=2;" parent="1" source="r7Afv0gRqrm4WA9c9OII-153" target="r7Afv0gRqrm4WA9c9OII-152" edge="1">
          <mxGeometry relative="1" as="geometry" />
        </mxCell>
        <mxCell id="r7Afv0gRqrm4WA9c9OII-153" value="EXCEPTION AND ERROR HANDLING (COUNTER)" style="rounded=0;whiteSpace=wrap;html=1;fontStyle=1;strokeWidth=2;fontSize=11;shape=label;boundedLbl=1;backgroundOutline=1;size=9.769240159254764;" parent="1" vertex="1">
          <mxGeometry x="720" y="1419.5" width="160" height="30" as="geometry" />
        </mxCell>
        <mxCell id="r7Afv0gRqrm4WA9c9OII-171" value="" style="group" parent="1" vertex="1" connectable="0">
          <mxGeometry x="1516" y="1077.75" width="150" height="78" as="geometry" />
        </mxCell>
        <mxCell id="r7Afv0gRqrm4WA9c9OII-172" value="MASK &amp;amp; ENCRYPT SCANNED CONSENT DOCUMENT" style="rounded=0;whiteSpace=wrap;html=1;fontStyle=1;strokeWidth=2;" parent="r7Afv0gRqrm4WA9c9OII-171" vertex="1">
          <mxGeometry x="30" y="9" width="120" height="60" as="geometry" />
        </mxCell>
        <mxCell id="r7Afv0gRqrm4WA9c9OII-173" value="CA" style="ellipse;whiteSpace=wrap;html=1;fillColor=#dae8fc;strokeColor=#6c8ebf;gradientColor=#7ea6e0;fontStyle=1" parent="r7Afv0gRqrm4WA9c9OII-171" vertex="1">
          <mxGeometry y="52" width="30" height="26" as="geometry" />
        </mxCell>
        <mxCell id="r7Afv0gRqrm4WA9c9OII-174" value="HSM" style="ellipse;whiteSpace=wrap;html=1;fillColor=#dae8fc;strokeColor=#6c8ebf;gradientColor=#7ea6e0;fontStyle=1" parent="r7Afv0gRqrm4WA9c9OII-171" vertex="1">
          <mxGeometry y="26" width="30" height="26" as="geometry" />
        </mxCell>
        <mxCell id="r7Afv0gRqrm4WA9c9OII-175" value="KM" style="ellipse;whiteSpace=wrap;html=1;fillColor=#dae8fc;strokeColor=#6c8ebf;gradientColor=#7ea6e0;fontStyle=1" parent="r7Afv0gRqrm4WA9c9OII-171" vertex="1">
          <mxGeometry width="30" height="26" as="geometry" />
        </mxCell>
        <mxCell id="r7Afv0gRqrm4WA9c9OII-178" value="KM" style="ellipse;whiteSpace=wrap;html=1;fillColor=#dae8fc;strokeColor=#6c8ebf;gradientColor=#7ea6e0;fontStyle=1" parent="1" vertex="1">
          <mxGeometry x="1290" y="1327" width="30" height="26" as="geometry" />
        </mxCell>
        <mxCell id="r7Afv0gRqrm4WA9c9OII-179" value="HSM" style="ellipse;whiteSpace=wrap;html=1;fillColor=#dae8fc;strokeColor=#6c8ebf;gradientColor=#7ea6e0;fontStyle=1" parent="1" vertex="1">
          <mxGeometry x="1290" y="1364" width="30" height="26" as="geometry" />
        </mxCell>
        <mxCell id="r7Afv0gRqrm4WA9c9OII-180" value="IDA" style="ellipse;whiteSpace=wrap;html=1;fillColor=#dae8fc;strokeColor=#6c8ebf;gradientColor=#7ea6e0;fontStyle=1" parent="1" vertex="1">
          <mxGeometry x="1320" y="1299" width="30" height="26" as="geometry" />
        </mxCell>
        <mxCell id="r7Afv0gRqrm4WA9c9OII-181" value="AC" style="ellipse;whiteSpace=wrap;html=1;fillColor=#dae8fc;strokeColor=#6c8ebf;gradientColor=#7ea6e0;fontStyle=1" parent="1" vertex="1">
          <mxGeometry x="243" y="1292" width="30" height="26" as="geometry" />
        </mxCell>
        <mxCell id="r7Afv0gRqrm4WA9c9OII-183" value="" style="edgeStyle=orthogonalEdgeStyle;rounded=0;orthogonalLoop=1;jettySize=auto;html=1;strokeColor=#00CC00;fontStyle=1;strokeWidth=2;" parent="1" source="r7Afv0gRqrm4WA9c9OII-184" target="r7Afv0gRqrm4WA9c9OII-185" edge="1">
          <mxGeometry relative="1" as="geometry" />
        </mxCell>
        <mxCell id="r7Afv0gRqrm4WA9c9OII-184" value="LOGS THE PROCESS AND STATUS" style="rounded=0;whiteSpace=wrap;html=1;fontStyle=1;strokeWidth=2;shape=label;boundedLbl=1;backgroundOutline=1;size=15;" parent="1" vertex="1">
          <mxGeometry x="1870" y="1370" width="120" height="60.5" as="geometry" />
        </mxCell>
        <mxCell id="r7Afv0gRqrm4WA9c9OII-185" value="&lt;b&gt;END&lt;/b&gt;" style="strokeWidth=2;html=1;shape=mxgraph.flowchart.terminator;whiteSpace=wrap;fillColor=#f8cecc;strokeColor=#b85450;" parent="1" vertex="1">
          <mxGeometry x="1880" y="1459.5" width="100" height="40" as="geometry" />
        </mxCell>
        <mxCell id="r7Afv0gRqrm4WA9c9OII-186" value="IDA" style="ellipse;whiteSpace=wrap;html=1;fillColor=#dae8fc;strokeColor=#6c8ebf;gradientColor=#7ea6e0;fontStyle=1" parent="1" vertex="1">
          <mxGeometry x="1870" y="1344" width="30" height="26" as="geometry" />
        </mxCell>
        <mxCell id="r7Afv0gRqrm4WA9c9OII-187" value="NOTIFICATION GENERATOR" style="rounded=0;whiteSpace=wrap;html=1;fontStyle=1;strokeWidth=2;fontSize=11;shape=label;boundedLbl=1;backgroundOutline=1;size=9.769240159254764;" parent="1" vertex="1">
          <mxGeometry x="1651" y="1260" width="181.5" height="30" as="geometry" />
        </mxCell>
        <mxCell id="r7Afv0gRqrm4WA9c9OII-188" value="RECEIVES ACKNOWLEDGEMENT&lt;br&gt;OF CONSENT PROVIDED" style="rounded=0;whiteSpace=wrap;html=1;fontStyle=1;strokeWidth=2;" parent="1" vertex="1">
          <mxGeometry x="1621" y="175" width="130" height="90" as="geometry" />
        </mxCell>
        <mxCell id="r7Afv0gRqrm4WA9c9OII-195" style="edgeStyle=orthogonalEdgeStyle;rounded=0;orthogonalLoop=1;jettySize=auto;html=1;exitX=0.5;exitY=0;exitDx=0;exitDy=0;entryX=0.5;entryY=1;entryDx=0;entryDy=0;strokeColor=#00CC00;fontStyle=1;strokeWidth=2;" parent="1" source="r7Afv0gRqrm4WA9c9OII-190" target="r7Afv0gRqrm4WA9c9OII-193" edge="1">
          <mxGeometry relative="1" as="geometry" />
        </mxCell>
        <mxCell id="r7Afv0gRqrm4WA9c9OII-190" value="PRINT ACKNOWLEDGEMENT OF FAILURE CONSENT PROCESS WITH REASON" style="rounded=0;whiteSpace=wrap;html=1;fontStyle=1;strokeWidth=2;" parent="1" vertex="1">
          <mxGeometry x="1736" y="760" width="130" height="80" as="geometry" />
        </mxCell>
        <mxCell id="r7Afv0gRqrm4WA9c9OII-196" style="edgeStyle=orthogonalEdgeStyle;rounded=0;orthogonalLoop=1;jettySize=auto;html=1;exitX=0.5;exitY=0;exitDx=0;exitDy=0;entryX=0.5;entryY=1;entryDx=0;entryDy=0;strokeColor=#00CC00;fontStyle=1;strokeWidth=2;" parent="1" source="r7Afv0gRqrm4WA9c9OII-193" target="r7Afv0gRqrm4WA9c9OII-194" edge="1">
          <mxGeometry relative="1" as="geometry" />
        </mxCell>
        <mxCell id="r7Afv0gRqrm4WA9c9OII-193" value="RECEIVES ACKNOWLEDGEMENT&lt;br&gt;OF FAILURE" style="rounded=0;whiteSpace=wrap;html=1;fontStyle=1;strokeWidth=2;" parent="1" vertex="1">
          <mxGeometry x="1770" y="410" width="130" height="90" as="geometry" />
        </mxCell>
        <mxCell id="r7Afv0gRqrm4WA9c9OII-197" style="edgeStyle=orthogonalEdgeStyle;rounded=0;orthogonalLoop=1;jettySize=auto;html=1;exitX=1;exitY=0.5;exitDx=0;exitDy=0;strokeColor=#00CC00;fontStyle=1;strokeWidth=2;" parent="1" source="r7Afv0gRqrm4WA9c9OII-194" target="r7Afv0gRqrm4WA9c9OII-184" edge="1">
          <mxGeometry relative="1" as="geometry" />
        </mxCell>
        <mxCell id="r7Afv0gRqrm4WA9c9OII-194" value="RECEIVES ACKNOWLEDGEMENT&lt;br&gt;OF FAILURE" style="rounded=0;whiteSpace=wrap;html=1;fontStyle=1;strokeWidth=2;" parent="1" vertex="1">
          <mxGeometry x="1770" y="280" width="130" height="90" as="geometry" />
        </mxCell>
        <mxCell id="r7Afv0gRqrm4WA9c9OII-96" value="" style="group" parent="1" vertex="1" connectable="0">
          <mxGeometry x="90" y="898.75" width="1920" height="60" as="geometry" />
        </mxCell>
        <mxCell id="r7Afv0gRqrm4WA9c9OII-97" value="" style="group" parent="r7Afv0gRqrm4WA9c9OII-96" vertex="1" connectable="0">
          <mxGeometry y="2" width="1919.9999999999998" height="40" as="geometry" />
        </mxCell>
        <mxCell id="r7Afv0gRqrm4WA9c9OII-98" value="&lt;b&gt;SINGLE/ DUAL FIREWALL&lt;/b&gt;" style="shape=label;whiteSpace=wrap;html=1;boundedLbl=1;backgroundOutline=1;darkOpacity=0.05;darkOpacity2=0.1;fillColor=#e51400;fontColor=#ffffff;strokeColor=#B20000;rounded=0;" parent="r7Afv0gRqrm4WA9c9OII-97" vertex="1">
          <mxGeometry width="1919.9999999999998" height="20" as="geometry" />
        </mxCell>
        <mxCell id="r7Afv0gRqrm4WA9c9OII-99" value="&lt;b&gt;IDS, IPS, HONEYPOT&lt;/b&gt;" style="shape=label;whiteSpace=wrap;html=1;boundedLbl=1;backgroundOutline=1;darkOpacity=0.05;darkOpacity2=0.1;fillColor=#f0a30a;strokeColor=#BD7000;rounded=0;fontColor=#000000;" parent="r7Afv0gRqrm4WA9c9OII-97" vertex="1">
          <mxGeometry y="20" width="1919.9999999999998" height="20" as="geometry" />
        </mxCell>
        <mxCell id="r7Afv0gRqrm4WA9c9OII-100" value="API/ HTTPS (SSL/TLS)" style="shape=label;whiteSpace=wrap;html=1;boundedLbl=1;backgroundOutline=1;darkOpacity=0.05;darkOpacity2=0.1;fillColor=#f8cecc;strokeColor=#b85450;rounded=0;fontStyle=1" parent="r7Afv0gRqrm4WA9c9OII-96" vertex="1">
          <mxGeometry y="-18" width="1919.9999999999998" height="20" as="geometry" />
        </mxCell>
        <mxCell id="r7Afv0gRqrm4WA9c9OII-121" value="" style="group" parent="1" vertex="1" connectable="0">
          <mxGeometry x="90" y="1205" width="1920" height="60" as="geometry" />
        </mxCell>
        <mxCell id="r7Afv0gRqrm4WA9c9OII-122" value="" style="group" parent="r7Afv0gRqrm4WA9c9OII-121" vertex="1" connectable="0">
          <mxGeometry y="2" width="1919.9999999999998" height="40" as="geometry" />
        </mxCell>
        <mxCell id="r7Afv0gRqrm4WA9c9OII-123" value="&lt;b&gt;SINGLE/ DUAL FIREWALL&lt;/b&gt;" style="shape=label;whiteSpace=wrap;html=1;boundedLbl=1;backgroundOutline=1;darkOpacity=0.05;darkOpacity2=0.1;fillColor=#e51400;fontColor=#ffffff;strokeColor=#B20000;rounded=0;" parent="r7Afv0gRqrm4WA9c9OII-122" vertex="1">
          <mxGeometry width="1919.9999999999998" height="20" as="geometry" />
        </mxCell>
        <mxCell id="r7Afv0gRqrm4WA9c9OII-124" value="&lt;b&gt;IDS, IPS, HONEYPOT&lt;/b&gt;" style="shape=label;whiteSpace=wrap;html=1;boundedLbl=1;backgroundOutline=1;darkOpacity=0.05;darkOpacity2=0.1;fillColor=#f0a30a;strokeColor=#BD7000;rounded=0;fontColor=#000000;" parent="r7Afv0gRqrm4WA9c9OII-122" vertex="1">
          <mxGeometry y="20" width="1919.9999999999998" height="20" as="geometry" />
        </mxCell>
        <mxCell id="r7Afv0gRqrm4WA9c9OII-125" value="API/ HTTPS (SSL/TLS)" style="shape=label;whiteSpace=wrap;html=1;boundedLbl=1;backgroundOutline=1;darkOpacity=0.05;darkOpacity2=0.1;fillColor=#f8cecc;strokeColor=#b85450;rounded=0;fontStyle=1" parent="r7Afv0gRqrm4WA9c9OII-121" vertex="1">
          <mxGeometry y="-18" width="1919.9999999999998" height="20" as="geometry" />
        </mxCell>
        <mxCell id="wvXzQpL4P3gCwvihpxaJ-1" value="UPDATE ARRIVAL STATUS IN RID ACCOUNT" style="rounded=0;whiteSpace=wrap;html=1;fontStyle=1;strokeWidth=2;shape=label;boundedLbl=1;backgroundOutline=1;size=15;" parent="1" vertex="1">
          <mxGeometry x="635" y="1307" width="120" height="65" as="geometry" />
        </mxCell>
        <mxCell id="wvXzQpL4P3gCwvihpxaJ-2" value="IDA" style="ellipse;whiteSpace=wrap;html=1;fillColor=#dae8fc;strokeColor=#6c8ebf;gradientColor=#7ea6e0;fontStyle=1" parent="1" vertex="1">
          <mxGeometry x="636" y="1279" width="30" height="26" as="geometry" />
        </mxCell>
        <mxCell id="wvXzQpL4P3gCwvihpxaJ-3" value="KM" style="ellipse;whiteSpace=wrap;html=1;fillColor=#dae8fc;strokeColor=#6c8ebf;gradientColor=#7ea6e0;fontStyle=1" parent="1" vertex="1">
          <mxGeometry x="606" y="1307" width="30" height="26" as="geometry" />
        </mxCell>
        <mxCell id="wvXzQpL4P3gCwvihpxaJ-4" value="HSM" style="ellipse;whiteSpace=wrap;html=1;fillColor=#dae8fc;strokeColor=#6c8ebf;gradientColor=#7ea6e0;fontStyle=1" parent="1" vertex="1">
          <mxGeometry x="606" y="1344" width="30" height="26" as="geometry" />
        </mxCell>
        <mxCell id="wvXzQpL4P3gCwvihpxaJ-7" style="edgeStyle=orthogonalEdgeStyle;rounded=0;orthogonalLoop=1;jettySize=auto;html=1;exitX=1;exitY=0.5;exitDx=0;exitDy=0;entryX=0;entryY=0.5;entryDx=0;entryDy=0;labelBackgroundColor=none;strokeColor=#00CC00;fontStyle=1;strokeWidth=2;jumpStyle=arc;jumpSize=11;" parent="1" source="8eKBUWW6FmaFlCSRCfbh-5" target="8eKBUWW6FmaFlCSRCfbh-58" edge="1">
          <mxGeometry relative="1" as="geometry" />
        </mxCell>
        <mxCell id="wvXzQpL4P3gCwvihpxaJ-8" value="IDA" style="ellipse;whiteSpace=wrap;html=1;fillColor=#dae8fc;strokeColor=#6c8ebf;gradientColor=#7ea6e0;fontStyle=1" parent="1" vertex="1">
          <mxGeometry x="1540" y="1301" width="30" height="26" as="geometry" />
        </mxCell>
        <mxCell id="zYJcDUMQOEzYmeLuZqNy-1" value="&lt;div style=&quot;font-size: 18px;&quot;&gt;&lt;font style=&quot;font-size: 18px;&quot;&gt;&lt;b style=&quot;font-size: 18px;&quot;&gt;Purpose:&lt;/b&gt;&lt;/font&gt;&lt;/div&gt;&lt;div style=&quot;&quot;&gt;This SOP focuses on obtaining informed consent from the applicant or guardian for the collection and use of biometric data.&lt;br&gt;&lt;/div&gt;" style="whiteSpace=wrap;html=1;align=left;rounded=0;strokeWidth=2;verticalAlign=middle;fontFamily=Helvetica;fontSize=18;fontStyle=0;" vertex="1" parent="1">
          <mxGeometry x="70" y="10" width="1960" height="60" as="geometry" />
        </mxCell>
      </root>
    </mxGraphModel>
  </diagram>
</mxfile>
